Light Condensed.ufo
<glyph name="numbersign" format="1">
  <advance width="662"/>
  <unicode hex="0023"/>
  <outline>
    <contour>
      <point x="328" y="1" type="curve"/>
      <point x="513" y="584" type="line"/>
      <point x="513" y="584"/>
      <point x="533" y="584"/>
      <point x="533" y="584" type="curve"/>
      <point x="348" y="1" type="line"/>
      <point x="348" y="1"/>
      <point x="328" y="1"/>
    </contour>
    <contour>
      <point x="102" y="1" type="curve"/>
      <point x="287" y="584" type="line"/>
      <point x="287" y="584"/>
      <point x="307" y="584"/>
      <point x="307" y="584" type="curve"/>
      <point x="122" y="1" type="line"/>
      <point x="122" y="1"/>
      <point x="102" y="1"/>
    </contour>
    <contour>
      <point x="51" y="206" type="line"/>
      <point x="539" y="206" type="line"/>
      <point x="529" y="188" type="line"/>
      <point x="41" y="188" type="line"/>
    </contour>
    <contour>
      <point x="120" y="444" type="line"/>
      <point x="608" y="444" type="line"/>
      <point x="598" y="426" type="line"/>
      <point x="110" y="426" type="line"/>
    </contour>
  </outline>
</glyph>
<glyph name="one" format="1">
  <advance width="371"/>
  <unicode hex="0031"/>
  <outline>
    <contour>
      <point x="191" y="0" type="line"/>
      <point x="191" y="601" type="line"/>
      <point x="199" y="572" type="line"/>
      <point x="80" y="572" type="line"/>
      <point x="80" y="586" type="line"/>
      <point x="151" y="586"/>
      <point x="195" y="607"/>
      <point x="195" y="685" type="curve"/>
      <point x="211" y="685" type="line"/>
      <point x="211" y="0" type="line"/>
    </contour>
  </outline>
</glyph>
<glyph name="six" format="1">
  <advance width="638"/>
  <unicode hex="0036"/>
  <outline>
    <contour>
      <point x="114" y="217" type="line"/>
      <point x="114" y="350"/>
      <point x="203" y="448"/>
      <point x="333" y="448" type="curve"/>
      <point x="467" y="448"/>
      <point x="561" y="351"/>
      <point x="561" y="217" type="curve" smooth="yes"/>
      <point x="561" y="83"/>
      <point x="465" y="-12"/>
      <point x="330" y="-12" type="curve"/>
      <point x="177" y="-12"/>
      <point x="107" y="136"/>
      <point x="107" y="306" type="curve" smooth="yes"/>
      <point x="107" y="511"/>
      <point x="179" y="695"/>
      <point x="360" y="695" type="curve"/>
      <point x="452" y="695"/>
      <point x="525" y="651"/>
      <point x="560" y="566" type="curve"/>
      <point x="546" y="555" type="line"/>
      <point x="511" y="632"/>
      <point x="447" y="677"/>
      <point x="363" y="677" type="curve"/>
      <point x="191" y="677"/>
      <point x="127" y="500"/>
      <point x="127" y="305" type="curve" smooth="yes"/>
      <point x="127" y="146"/>
      <point x="188" y="6"/>
      <point x="330" y="6" type="curve"/>
      <point x="452" y="6"/>
      <point x="538" y="94"/>
      <point x="541" y="217" type="curve" smooth="yes"/>
      <point x="544" y="341"/>
      <point x="457" y="430"/>
      <point x="333" y="430" type="curve"/>
      <point x="213" y="430"/>
      <point x="131" y="339"/>
      <point x="131" y="217" type="curve"/>
    </contour>
  </outline>
</glyph>
<glyph name="eight" format="1">
  <advance width="508"/>
  <unicode hex="0038"/>
  <outline>
    <contour>
      <point x="254" y="374" type="curve"/>
      <point x="162" y="374"/>
      <point x="90" y="435"/>
      <point x="90" y="527" type="curve" smooth="yes"/>
      <point x="90" y="631"/>
      <point x="165" y="695"/>
      <point x="254" y="695" type="curve" smooth="yes"/>
      <point x="343" y="695"/>
      <point x="418" y="631"/>
      <point x="418" y="527" type="curve" smooth="yes"/>
      <point x="418" y="435"/>
      <point x="345" y="374"/>
    </contour>
    <contour>
      <point x="254" y="392" type="curve" smooth="yes"/>
      <point x="338" y="392"/>
      <point x="398" y="451"/>
      <point x="398" y="527" type="curve" smooth="yes"/>
      <point x="398" y="611"/>
      <point x="338" y="677"/>
      <point x="254" y="677" type="curve" smooth="yes"/>
      <point x="170" y="677"/>
      <point x="110" y="611"/>
      <point x="110" y="527" type="curve" smooth="yes"/>
      <point x="110" y="451"/>
      <point x="170" y="392"/>
    </contour>
    <contour>
      <point x="254" y="6" type="curve" smooth="yes"/>
      <point x="373" y="6"/>
      <point x="448" y="94"/>
      <point x="448" y="194" type="curve" smooth="yes"/>
      <point x="448" y="298"/>
      <point x="367" y="374"/>
      <point x="254" y="374" type="curve"/>
      <point x="141" y="374"/>
      <point x="60" y="298"/>
      <point x="60" y="194" type="curve" smooth="yes"/>
      <point x="60" y="94"/>
      <point x="135" y="6"/>
    </contour>
    <contour>
      <point x="254" y="-12" type="curve" smooth="yes"/>
      <point x="123" y="-12"/>
      <point x="40" y="70"/>
      <point x="40" y="194" type="curve" smooth="yes"/>
      <point x="40" y="319"/>
      <point x="137" y="392"/>
      <point x="254" y="392" type="curve" smooth="yes"/>
      <point x="371" y="392"/>
      <point x="468" y="319"/>
      <point x="468" y="194" type="curve" smooth="yes"/>
      <point x="468" y="70"/>
      <point x="385" y="-12"/>
    </contour>
  </outline>
</glyph>
<glyph name="question" format="1">
  <advance width="449"/>
  <unicode hex="003F"/>
  <outline>
    <contour>
      <point x="213" y="150" type="line"/>
      <point x="213" y="220" type="line" smooth="yes"/>
      <point x="213.0" y="365.185185185"/>
      <point x="410.0" y="365.185185185"/>
      <point x="410" y="500" type="curve"/>
      <point x="410" y="611"/>
      <point x="342" y="677"/>
      <point x="230" y="677" type="curve" smooth="yes"/>
      <point x="125" y="677"/>
      <point x="62" y="622"/>
      <point x="39" y="519" type="curve"/>
      <point x="20" y="524" type="line"/>
      <point x="47" y="636"/>
      <point x="116" y="695"/>
      <point x="230" y="695" type="curve" smooth="yes"/>
      <point x="354" y="695"/>
      <point x="430" y="623"/>
      <point x="430" y="500" type="curve"/>
      <point x="430.0" y="355.204545455"/>
      <point x="233.0" y="350.606741573"/>
      <point x="233" y="223" type="curve" smooth="yes"/>
      <point x="233" y="150" type="line"/>
    </contour>
    <component base="dotaccent" xOffset="128" yOffset="-595"/>
  </outline>
</glyph>
<glyph name="A" format="1">
  <advance width="355"/>
  <unicode hex="0041"/>
  <outline>
    <contour>
      <point x="298" y="219" type="line"/>
      <point x="64" y="219" type="line"/>
      <point x="64" y="238" type="line"/>
      <point x="298" y="238" type="line"/>
    </contour>
    <component base="V" xScale="-1" yScale="-1" xOffset="355" yOffset="685"/>
    <contour>
      <point x="79" y="685" type="move" name="top"/>
    </contour>
    <contour>
      <point x="355" y="0" type="move" name="ogonek"/>
    </contour>
  </outline>
</glyph>
<glyph name="B" format="1">
  <advance width="331"/>
  <unicode hex="0042"/>
  <outline>
    <contour>
      <point x="205.474576271" y="375"/>
      <point x="237.0" y="422.0"/>
      <point x="237" y="515" type="curve" smooth="yes"/>
      <point x="237.0" y="597.0"/>
      <point x="205.943661972" y="667"/>
      <point x="132" y="667" type="curve" smooth="yes"/>
      <point x="75" y="667" type="line"/>
      <point x="75" y="685" type="line"/>
      <point x="142" y="685" type="line" smooth="yes"/>
      <point x="215.827160494" y="685"/>
      <point x="257.0" y="608.0"/>
      <point x="257" y="520" type="curve" smooth="yes"/>
      <point x="257.0" y="405.0"/>
      <point x="213.173913043" y="357"/>
      <point x="131" y="357" type="curve" smooth="yes"/>
      <point x="105" y="357" type="line"/>
      <point x="105" y="375" type="line"/>
      <point x="144" y="375" type="line" smooth="yes"/>
    </contour>
    <contour>
      <point x="237.0" y="18"/>
      <point x="281.0" y="88.0"/>
      <point x="281" y="186" type="curve" smooth="yes"/>
      <point x="281.0" y="278.0"/>
      <point x="224.20754717" y="357"/>
      <point x="141" y="357" type="curve" smooth="yes"/>
      <point x="55" y="357" type="line"/>
      <point x="55" y="375" type="line"/>
      <point x="124" y="375" type="line" smooth="yes"/>
      <point x="240.34965035" y="375"/>
      <point x="301.0" y="294.0"/>
      <point x="301" y="186" type="curve" smooth="yes"/>
      <point x="301.0" y="70.0"/>
      <point x="248.015384615" y="0"/>
      <point x="137" y="0" type="curve" smooth="yes"/>
      <point x="55" y="0" type="line"/>
      <point x="55" y="18" type="line"/>
      <point x="145" y="18" type="line" smooth="yes"/>
    </contour>
    <component base="I"/>
  </outline>
</glyph>
<glyph name="C" format="1">
  <advance width="363"/>
  <unicode hex="0043"/>
  <outline>
    <contour>
      <point x="311" y="491" type="line"/>
      <point x="292" y="604"/>
      <point x="248" y="677"/>
      <point x="188" y="677" type="curve"/>
      <point x="103" y="677"/>
      <point x="50" y="531"/>
      <point x="50" y="341" type="curve" smooth="yes"/>
      <point x="50" y="152"/>
      <point x="103" y="6"/>
      <point x="189" y="6" type="curve"/>
      <point x="249" y="6"/>
      <point x="294" y="72"/>
      <point x="316" y="178" type="curve"/>
      <point x="333" y="169" type="line"/>
      <point x="311" y="55"/>
      <point x="258" y="-12"/>
      <point x="191" y="-12" type="curve"/>
      <point x="92" y="-12"/>
      <point x="30" y="138"/>
      <point x="30" y="337" type="curve" smooth="yes"/>
      <point x="30" y="540"/>
      <point x="92" y="695"/>
      <point x="192" y="695" type="curve"/>
      <point x="258" y="695"/>
      <point x="310" y="619"/>
      <point x="327" y="499" type="curve"/>
    </contour>
    <contour>
      <point x="169" y="0" type="move" name="bottom"/>
    </contour>
    <contour>
      <point x="172" y="685" type="move" name="top"/>
    </contour>
  </outline>
</glyph>
<glyph name="F" format="1">
  <advance width="313"/>
  <unicode hex="0046"/>
  <outline>
    <contour>
      <point x="243" y="341" type="line"/>
      <point x="55" y="341" type="line"/>
      <point x="55" y="359" type="line"/>
      <point x="243" y="359" type="line"/>
    </contour>
    <contour>
      <point x="293" y="667" type="line"/>
      <point x="55" y="667" type="line"/>
      <point x="55" y="685" type="line"/>
      <point x="293" y="685" type="line"/>
    </contour>
    <contour>
      <point x="55" y="0" type="curve"/>
      <point x="55" y="0"/>
      <point x="55" y="0"/>
    </contour>
    <component base="I"/>
  </outline>
</glyph>
<glyph name="M" format="1">
  <advance width="535"/>
  <unicode hex="004D"/>
  <outline>
    <contour>
      <point x="275" y="0" type="line"/>
      <point x="252" y="0" type="line"/>
      <point x="448" y="685" type="line"/>
      <point x="471" y="685" type="line"/>
    </contour>
    <contour>
      <point x="252" y="0" type="line"/>
      <point x="63" y="685" type="line"/>
      <point x="86" y="685" type="line"/>
      <point x="275" y="0" type="line"/>
    </contour>
    <component base="I" xOffset="405"/>
    <component base="I"/>
  </outline>
</glyph>
<glyph name="N" format="1">
  <advance width="433"/>
  <unicode hex="004E"/>
  <outline>
    <contour>
      <point x="348" y="0" type="line"/>
      <point x="61" y="685" type="line"/>
      <point x="87" y="685" type="line"/>
      <point x="374" y="0" type="line"/>
    </contour>
    <component base="I" xOffset="303"/>
    <component base="I"/>
    <contour>
      <point x="298" y="685" type="move" name="top"/>
    </contour>
    <contour>
      <point x="298" y="0" type="move" name="bottom"/>
    </contour>
  </outline>
</glyph>
<glyph name="O" format="1">
  <advance width="370"/>
  <unicode hex="004F"/>
  <outline>
    <contour>
      <point x="185" y="677" type="curve" smooth="yes"/>
      <point x="106" y="677"/>
      <point x="50" y="531"/>
      <point x="50" y="337" type="curve" smooth="yes"/>
      <point x="50" y="146"/>
      <point x="106" y="6"/>
      <point x="185" y="6" type="curve" smooth="yes"/>
      <point x="264" y="6"/>
      <point x="320" y="146"/>
      <point x="320" y="337" type="curve" smooth="yes"/>
      <point x="320" y="531"/>
      <point x="264" y="677"/>
    </contour>
    <contour>
      <point x="185" y="695" type="curve" smooth="yes"/>
      <point x="276" y="695"/>
      <point x="340" y="542"/>
      <point x="340" y="337" type="curve" smooth="yes"/>
      <point x="340" y="135"/>
      <point x="275" y="-12"/>
      <point x="185" y="-12" type="curve" smooth="yes"/>
      <point x="95" y="-12"/>
      <point x="30" y="135"/>
      <point x="30" y="337" type="curve" smooth="yes"/>
      <point x="30" y="542"/>
      <point x="94" y="695"/>
    </contour>
    <contour>
      <point x="185" y="685" type="move" name="top"/>
    </contour>
    <contour>
      <point x="185" y="0" type="move" name="bottom"/>
    </contour>
  </outline>
</glyph>
<glyph name="P" format="1">
  <advance width="294"/>
  <unicode hex="0050"/>
  <outline>
    <contour>
      <point x="244" y="489" type="curve"/>
      <point x="244.0" y="580.0"/>
      <point x="210.411290323" y="667"/>
      <point x="125" y="667" type="curve" smooth="yes"/>
      <point x="74" y="667" type="line"/>
      <point x="74" y="685" type="line"/>
      <point x="136" y="685" type="line" smooth="yes"/>
      <point x="226.947368421" y="685"/>
      <point x="264.0" y="584.0"/>
      <point x="264" y="489" type="curve"/>
      <point x="264.0" y="391.0"/>
      <point x="235.173913043" y="284"/>
      <point x="134" y="284" type="curve" smooth="yes"/>
      <point x="74" y="284" type="line"/>
      <point x="74" y="302" type="line"/>
      <point x="137" y="302" type="line" smooth="yes"/>
      <point x="214.520408163" y="302"/>
      <point x="244.0" y="391.0"/>
    </contour>
    <component base="I"/>
  </outline>
</glyph>
<glyph name="Q" format="1">
  <advance width="370"/>
  <unicode hex="0051"/>
  <outline>
    <contour>
      <point x="310" y="-43" type="line"/>
      <point x="223" y="181" type="line"/>
      <point x="238" y="194" type="line"/>
      <point x="325" y="-29" type="line"/>
    </contour>
    <component base="O"/>
  </outline>
</glyph>
<glyph name="S" format="1">
  <advance width="379"/>
  <unicode hex="0053"/>
  <outline>
    <contour>
      <point x="329" y="564" type="line"/>
      <point x="321" y="625"/>
      <point x="274" y="672"/>
      <point x="218" y="672" type="curve"/>
      <point x="159" y="672"/>
      <point x="98" y="610"/>
      <point x="98" y="508" type="curve"/>
      <point x="98" y="315"/>
      <point x="349" y="402"/>
      <point x="349" y="183" type="curve"/>
      <point x="349" y="49"/>
      <point x="281" y="-12"/>
      <point x="188" y="-12" type="curve"/>
      <point x="101" y="-12"/>
      <point x="53" y="64"/>
      <point x="30" y="125" type="curve"/>
      <point x="45" y="136" type="line"/>
      <point x="75" y="68"/>
      <point x="121" y="6"/>
      <point x="191" y="6" type="curve"/>
      <point x="261" y="6"/>
      <point x="329" y="54"/>
      <point x="329" y="178" type="curve"/>
      <point x="329" y="386"/>
      <point x="78" y="295"/>
      <point x="78" y="509" type="curve"/>
      <point x="78" y="609"/>
      <point x="138" y="690"/>
      <point x="218" y="690" type="curve"/>
      <point x="276" y="690"/>
      <point x="335" y="639"/>
      <point x="343" y="577" type="curve"/>
    </contour>
    <contour>
      <point x="208" y="685" type="move" name="top"/>
    </contour>
    <contour>
      <point x="198" y="0" type="move" name="bottom"/>
    </contour>
  </outline>
</glyph>
<glyph name="T" format="1">
  <advance width="355"/>
  <unicode hex="0054"/>
  <outline>
    <contour>
      <point x="350" y="667" type="line"/>
      <point x="5" y="667" type="line"/>
      <point x="5" y="685" type="line"/>
      <point x="350" y="685" type="line"/>
    </contour>
    <component base="I" xOffset="112"/>
    <contour>
      <point x="177" y="685" type="move" name="top"/>
    </contour>
  </outline>
</glyph>
<glyph name="V" format="1">
  <advance width="355"/>
  <unicode hex="0056"/>
  <outline>
    <contour>
      <point x="-10" y="685" type="line"/>
      <point x="13" y="685" type="line"/>
      <point x="189" y="0" type="line"/>
      <point x="166" y="0" type="line"/>
    </contour>
    <contour>
      <point x="365" y="685" type="line"/>
      <point x="189" y="0" type="line"/>
      <point x="166" y="0" type="line"/>
      <point x="342" y="685" type="line"/>
    </contour>
  </outline>
</glyph>
<glyph name="a" format="1">
  <advance width="336"/>
  <unicode hex="0061"/>
  <outline>
    <contour>
      <point x="42" y="401" type="line"/>
      <point x="64" y="485"/>
      <point x="111" y="510"/>
      <point x="161" y="510" type="curve" smooth="yes"/>
      <point x="224" y="510"/>
      <point x="277" y="460"/>
      <point x="273" y="320" type="curve" smooth="yes"/>
      <point x="266" y="70" type="line" smooth="yes"/>
      <point x="265" y="35"/>
      <point x="278" y="6"/>
      <point x="321" y="8" type="curve"/>
      <point x="318" y="-8" type="line"/>
      <point x="272" y="-12"/>
      <point x="244" y="13"/>
      <point x="246" y="74" type="curve" smooth="yes"/>
      <point x="253" y="324" type="line" smooth="yes"/>
      <point x="256" y="449"/>
      <point x="210" y="490"/>
      <point x="161" y="490" type="curve"/>
      <point x="115" y="491"/>
      <point x="78" y="469"/>
      <point x="58" y="391" type="curve"/>
    </contour>
    <contour>
      <point x="260" y="255" type="line"/>
      <point x="167" y="270"/>
      <point x="50" y="267"/>
      <point x="50" y="138" type="curve"/>
      <point x="50" y="50"/>
      <point x="88" y="8"/>
      <point x="144" y="8" type="curve"/>
      <point x="197" y="8"/>
      <point x="250" y="69"/>
      <point x="250" y="191" type="curve"/>
      <point x="260" y="186" type="line"/>
      <point x="260" y="65"/>
      <point x="211" y="-12"/>
      <point x="136" y="-12" type="curve"/>
      <point x="77" y="-12"/>
      <point x="30" y="39"/>
      <point x="30" y="136" type="curve"/>
      <point x="30" y="261"/>
      <point x="120" y="293"/>
      <point x="258" y="275" type="curve"/>
    </contour>
    <contour>
      <point x="166" y="500" type="move" name="top"/>
    </contour>
    <contour>
      <point x="112" y="0" type="move" name="bottom"/>
    </contour>
    <contour>
      <point x="420" y="0" type="move" name="ogonek"/>
    </contour>
  </outline>
</glyph>
<glyph name="g" format="1">
  <advance width="357"/>
  <unicode hex="0067"/>
  <outline>
    <contour>
      <point x="345" y="458" type="line"/>
      <point x="292" y="476"/>
      <point x="252" y="424"/>
      <point x="252" y="349" type="curve"/>
      <point x="236" y="349" type="line"/>
      <point x="236" y="435"/>
      <point x="285" y="494"/>
      <point x="352" y="480" type="curve"/>
    </contour>
    <contour>
      <point x="149" y="196" type="line"/>
      <point x="100" y="186"/>
      <point x="61" y="180"/>
      <point x="61" y="128" type="curve"/>
      <point x="60" y="15"/>
      <point x="294" y="89"/>
      <point x="294" y="-74" type="curve"/>
      <point x="294" y="-176"/>
      <point x="253" y="-211"/>
      <point x="172" y="-211" type="curve"/>
      <point x="85" y="-211"/>
      <point x="30" y="-170"/>
      <point x="30" y="-86" type="curve"/>
      <point x="30" y="-7"/>
      <point x="63" y="35"/>
      <point x="134" y="49" type="curve"/>
      <point x="151" y="41" type="line"/>
      <point x="82" y="25"/>
      <point x="49" y="-10"/>
      <point x="49" y="-86" type="curve"/>
      <point x="49" y="-161"/>
      <point x="98" y="-192"/>
      <point x="177" y="-192" type="curve"/>
      <point x="240" y="-192"/>
      <point x="274" y="-155"/>
      <point x="274" y="-78" type="curve"/>
      <point x="274" y="75"/>
      <point x="40" y="-8"/>
      <point x="41" y="125" type="curve"/>
      <point x="41" y="188"/>
      <point x="86" y="197"/>
      <point x="137" y="204" type="curve"/>
    </contour>
    <contour>
      <point x="52" y="349" type="line"/>
      <point x="52" y="349"/>
      <point x="52" y="349"/>
      <point x="52" y="349" type="curve" smooth="yes"/>
      <point x="52" y="457"/>
      <point x="85" y="510"/>
      <point x="152" y="510" type="curve" smooth="yes"/>
      <point x="219" y="510"/>
      <point x="252" y="457"/>
      <point x="252" y="349" type="curve" smooth="yes"/>
      <point x="252" y="241"/>
      <point x="219" y="188"/>
      <point x="152" y="188" type="curve" smooth="yes"/>
      <point x="85" y="188"/>
      <point x="52" y="241"/>
      <point x="52" y="349" type="curve"/>
      <point x="72" y="349" type="line"/>
      <point x="72" y="255"/>
      <point x="99" y="205"/>
      <point x="152" y="205" type="curve" smooth="yes"/>
      <point x="205" y="205"/>
      <point x="232" y="255"/>
      <point x="232" y="349" type="curve" smooth="yes"/>
      <point x="232" y="443"/>
      <point x="205" y="493"/>
      <point x="152" y="493" type="curve" smooth="yes"/>
      <point x="99" y="493"/>
      <point x="72" y="443"/>
      <point x="72" y="349" type="curve" smooth="yes"/>
      <point x="72" y="349"/>
      <point x="72" y="349"/>
      <point x="72" y="349" type="curve"/>
    </contour>
    <contour>
      <point x="149" y="500" type="move" name="top"/>
    </contour>
  </outline>
</glyph>
<glyph name="j" format="1">
  <advance width="160"/>
  <unicode hex="006A"/>
  <outline>
    <contour>
      <point x="85" y="0" type="line"/>
      <point x="105" y="16" type="line"/>
      <point x="105" y="-29" type="line" smooth="yes"/>
      <point x="105" y="-97"/>
      <point x="73" y="-124"/>
      <point x="6" y="-107" type="curve"/>
      <point x="10" y="-88" type="line"/>
      <point x="67.4929183558" y="-101.527745495"/>
      <point x="85" y="-85.2244897959"/>
      <point x="85" y="-20" type="curve" smooth="yes"/>
    </contour>
    <component base="dotaccent"/>
    <component base="dotlessi" xOffset="30"/>
  </outline>
</glyph>
<glyph name="k" format="1">
  <advance width="278"/>
  <unicode hex="006B"/>
  <outline>
    <contour>
      <point x="63" y="207" type="line"/>
      <point x="219" y="500" type="line"/>
      <point x="241" y="500" type="line"/>
      <point x="66" y="171" type="line"/>
    </contour>
    <contour>
      <point x="240" y="0" type="line"/>
      <point x="113" y="291" type="line"/>
      <point x="126" y="305" type="line"/>
      <point x="263" y="0" type="line"/>
    </contour>
    <component base="l"/>
    <contour>
      <point x="265.0" y="-1.0" type="move" name="bottom"/>
    </contour>
  </outline>
</glyph>
<glyph name="m" format="1">
  <advance width="600"/>
  <unicode hex="006D"/>
  <outline>
    <contour>
      <point x="525" y="0" type="line"/>
      <point x="525" y="389" type="line" smooth="yes"/>
      <point x="525" y="460"/>
      <point x="485" y="494"/>
      <point x="435" y="494" type="curve" smooth="yes"/>
      <point x="370" y="494"/>
      <point x="310" y="436"/>
      <point x="310" y="344" type="curve"/>
      <point x="298" y="344" type="line"/>
      <point x="298" y="452"/>
      <point x="366" y="510"/>
      <point x="443" y="510" type="curve"/>
      <point x="501" y="510"/>
      <point x="545" y="462"/>
      <point x="545" y="389" type="curve" smooth="yes"/>
      <point x="545" y="0" type="line"/>
    </contour>
    <component base="n"/>
  </outline>
</glyph>
<glyph name="n" format="1">
  <advance width="365"/>
  <unicode hex="006E"/>
  <outline>
    <contour>
      <point x="290" y="0" type="line"/>
      <point x="290" y="389" type="line" smooth="yes"/>
      <point x="290" y="460"/>
      <point x="250" y="494"/>
      <point x="200" y="494" type="curve" smooth="yes"/>
      <point x="135" y="494"/>
      <point x="75" y="436"/>
      <point x="75" y="344" type="curve"/>
      <point x="63" y="344" type="line"/>
      <point x="63" y="452"/>
      <point x="131" y="510"/>
      <point x="208" y="510" type="curve"/>
      <point x="266" y="510"/>
      <point x="310" y="462"/>
      <point x="310" y="389" type="curve" smooth="yes"/>
      <point x="310" y="0" type="line"/>
    </contour>
    <component base="dotlessi"/>
    <contour>
      <point x="229.0" y="500.0" type="move" name="top"/>
    </contour>
    <contour>
      <point x="227.0" y="0.0" type="move" name="bottom"/>
    </contour>
  </outline>
</glyph>
<glyph name="v" format="1">
  <advance width="265"/>
  <unicode hex="0076"/>
  <outline>
    <contour>
      <point x="143" y="0" type="line"/>
      <point x="123" y="0" type="line"/>
      <point x="227" y="500" type="line"/>
      <point x="250" y="500" type="line"/>
    </contour>
    <contour>
      <point x="122" y="0" type="line"/>
      <point x="15" y="500" type="line"/>
      <point x="38" y="500" type="line"/>
      <point x="142" y="0" type="line"/>
    </contour>
    <contour>
      <point x="143" y="500" type="move" name="top"/>
    </contour>
  </outline>
</glyph>
<glyph name="x" format="1">
  <advance width="289"/>
  <unicode hex="0078"/>
  <outline>
    <contour>
      <point x="36" y="0" type="line"/>
      <point x="15" y="0" type="line"/>
      <point x="223" y="500" type="line"/>
      <point x="244" y="500" type="line"/>
    </contour>
    <contour>
      <point x="251" y="0" type="line"/>
      <point x="33" y="500" type="line"/>
      <point x="56" y="500" type="line"/>
      <point x="274" y="0" type="line"/>
    </contour>
  </outline>
</glyph>
<glyph name="z" format="1">
  <advance width="299"/>
  <unicode hex="007A"/>
  <outline>
    <contour>
      <point x="40" y="500" type="line"/>
      <point x="268" y="500" type="line"/>
      <point x="268" y="480" type="line"/>
      <point x="40" y="480" type="line"/>
    </contour>
    <contour>
      <point x="38" y="5" type="line"/>
      <point x="25" y="20" type="line"/>
      <point x="252" y="492" type="line"/>
      <point x="268" y="480" type="line"/>
    </contour>
    <contour>
      <point x="25" y="20" type="line"/>
      <point x="274" y="20" type="line"/>
      <point x="274" y="0" type="line"/>
      <point x="25" y="0" type="line"/>
    </contour>
    <contour>
      <point x="137" y="500" type="move" name="top"/>
    </contour>
  </outline>
</glyph>
<glyph name="germandbls" format="1">
  <advance width="580"/>
  <unicode hex="00DF"/>
  <outline>
    <contour>
      <point x="141.0" y="608.0"/>
      <point x="180" y="672"/>
      <point x="267" y="672" type="curve"/>
      <point x="359.466165414" y="672.0"/>
      <point x="410.0" y="600.0"/>
      <point x="410" y="540" type="curve"/>
      <point x="410.0" y="437.0"/>
      <point x="285.0" y="447.0"/>
      <point x="285" y="342" type="curve"/>
      <point x="285" y="197"/>
      <point x="495" y="263"/>
      <point x="496" y="115" type="curve"/>
      <point x="495" y="49"/>
      <point x="427" y="5"/>
      <point x="350" y="5" type="curve"/>
      <point x="305" y="5"/>
      <point x="259" y="22"/>
      <point x="233" y="40" type="curve"/>
      <point x="221" y="26" type="line"/>
      <point x="254" y="5"/>
      <point x="300" y="-12"/>
      <point x="347" y="-12" type="curve" smooth="yes"/>
      <point x="439" y="-12"/>
      <point x="515" y="38"/>
      <point x="516" y="115" type="curve"/>
      <point x="515" y="280"/>
      <point x="305" y="210"/>
      <point x="305" y="342" type="curve"/>
      <point x="305.0" y="435.0"/>
      <point x="430.0" y="423.0"/>
      <point x="430" y="540" type="curve"/>
      <point x="430.0" y="616.0"/>
      <point x="369.274509804" y="690.0"/>
      <point x="267" y="690" type="curve"/>
      <point x="170" y="690"/>
      <point x="121.0" y="615.0"/>
      <point x="121" y="525" type="curve" smooth="yes"/>
      <point x="121" y="0" type="line"/>
      <point x="141" y="0" type="line"/>
      <point x="141" y="520" type="line" smooth="yes"/>
    </contour>
  </outline>
</glyph>
<glyph name="ae" format="1">
  <advance width="873"/>
  <unicode hex="00E6"/>
  <outline>
    <contour>
      <point x="425" y="243" type="line"/>
      <point x="264" y="266"/>
      <point x="55.0" y="253.848"/>
      <point x="55" y="130" type="curve"/>
      <point x="55" y="45"/>
      <point x="110" y="8"/>
      <point x="212" y="8" type="curve"/>
      <point x="302" y="8"/>
      <point x="405" y="81"/>
      <point x="405" y="228" type="curve"/>
      <point x="421" y="223" type="line"/>
      <point x="421" y="79"/>
      <point x="331" y="-12"/>
      <point x="204" y="-12" type="curve"/>
      <point x="97" y="-12"/>
      <point x="35" y="33"/>
      <point x="35" y="128" type="curve"/>
      <point x="35.0" y="250.142857143"/>
      <point x="190" y="290"/>
      <point x="423" y="263" type="curve"/>
    </contour>
    <contour>
      <point x="56" y="387" type="line"/>
      <point x="96" y="477"/>
      <point x="169" y="510"/>
      <point x="251" y="510" type="curve" smooth="yes"/>
      <point x="350" y="510"/>
      <point x="432" y="460"/>
      <point x="428" y="320" type="curve"/>
      <point x="424" y="182" type="line" smooth="yes"/>
      <point x="404" y="186" type="line"/>
      <point x="408" y="324" type="line" smooth="yes"/>
      <point x="412" y="447"/>
      <point x="334" y="490"/>
      <point x="251" y="490" type="curve"/>
      <point x="178" y="490"/>
      <point x="104" y="460"/>
      <point x="72" y="377" type="curve"/>
    </contour>
    <component base="e" xOffset="361"/>
  </outline>
</glyph>
<glyph name="OE" format="1">
  <advance width="1048"/>
  <unicode hex="0152"/>
  <outline>
    <contour>
      <point x="584.0" y="604.0" type="move" smooth="yes"/>
      <point x="529.0" y="650.0"/>
      <point x="457.0" y="677.0"/>
      <point x="375.0" y="677.0" type="curve" smooth="yes"/>
      <point x="184.0" y="677.0"/>
      <point x="50.0" y="531.0"/>
      <point x="50.0" y="337.0" type="curve" smooth="yes"/>
      <point x="50.0" y="146.0"/>
      <point x="185.0" y="6.0"/>
      <point x="375.0" y="6.0" type="curve" smooth="yes"/>
      <point x="458.0" y="6.0"/>
      <point x="530.0" y="33.0"/>
      <point x="585.0" y="78.0" type="curve" smooth="yes"/>
    </contour>
    <contour>
      <point x="585" y="54" type="move" smooth="yes"/>
      <point x="528" y="12"/>
      <point x="456" y="-12"/>
      <point x="375" y="-12" type="curve" smooth="yes"/>
      <point x="174" y="-12"/>
      <point x="30" y="135"/>
      <point x="30" y="337" type="curve" smooth="yes"/>
      <point x="30" y="542"/>
      <point x="172" y="695"/>
      <point x="375" y="695" type="curve" smooth="yes"/>
      <point x="456" y="695"/>
      <point x="527" y="671"/>
      <point x="584" y="628" type="curve" smooth="yes"/>
    </contour>
    <contour>
      <point x="958" y="341" type="line"/>
      <point x="570" y="341" type="line"/>
      <point x="570" y="359" type="line"/>
      <point x="958" y="359" type="line"/>
    </contour>
    <contour>
      <point x="570.0" y="0.0" type="line"/>
      <point x="570.0" y="18.0" type="line"/>
      <point x="585.0" y="18.0" type="line"/>
      <point x="1018.0" y="18.0" type="line"/>
      <point x="1018.0" y="0.0" type="line"/>
    </contour>
    <contour>
      <point x="1008" y="667" type="line"/>
      <point x="570" y="667" type="line"/>
      <point x="570" y="685" type="line"/>
      <point x="1008" y="685" type="line"/>
    </contour>
    <contour>
      <point x="570" y="0" type="line"/>
      <point x="570" y="685" type="line"/>
      <point x="590" y="685" type="line"/>
      <point x="590" y="0" type="line"/>
    </contour>
  </outline>
</glyph>
<glyph name="breve" format="1">
  <advance width="406"/>
  <unicode hex="02D8"/>
  <outline>
    <contour>
      <point x="203" y="562" type="curve"/>
      <point x="120" y="562"/>
      <point x="80.0" y="624.161290323"/>
      <point x="80" y="685" type="curve"/>
      <point x="60" y="685" type="line"/>
      <point x="60.0" y="616.405405405"/>
      <point x="110" y="544"/>
      <point x="203" y="544" type="curve"/>
      <point x="296" y="544"/>
      <point x="346.0" y="616.405405405"/>
      <point x="346" y="685" type="curve"/>
      <point x="326" y="685" type="line"/>
      <point x="326.0" y="624.161290323"/>
      <point x="286" y="562"/>
    </contour>
    <contour>
      <point x="203" y="500" type="move" name="_top"/>
    </contour>
  </outline>
</glyph>
<glyph name="ring" format="1">
  <advance width="256"/>
  <unicode hex="02DA"/>
  <outline>
    <contour>
      <point x="72.0" y="659.0"/>
      <point x="30.0" y="614.0"/>
      <point x="30" y="559" type="curve" smooth="yes"/>
      <point x="30.0" y="504.0"/>
      <point x="72.0" y="459.0"/>
      <point x="128" y="459" type="curve" smooth="yes"/>
      <point x="183.471698113" y="459.0"/>
      <point x="226.0" y="504.0"/>
      <point x="226" y="559" type="curve" smooth="yes"/>
      <point x="226.0" y="614.0"/>
      <point x="183.471698113" y="659.0"/>
      <point x="128" y="659" type="curve" smooth="yes"/>
    </contour>
    <contour>
      <point x="10" y="626"/>
      <point x="61" y="677"/>
      <point x="128" y="677" type="curve" smooth="yes"/>
      <point x="195" y="677"/>
      <point x="246" y="626"/>
      <point x="246" y="559" type="curve" smooth="yes"/>
      <point x="246" y="492"/>
      <point x="195" y="441"/>
      <point x="128" y="441" type="curve" smooth="yes"/>
      <point x="61" y="441"/>
      <point x="10" y="492"/>
      <point x="10" y="559" type="curve" smooth="yes"/>
    </contour>
    <contour>
      <point x="128.0" y="500.0" type="move" name="_top"/>
    </contour>
  </outline>
</glyph>
<glyph name="afii10037" format="1">
  <advance width="549"/>
  <unicode hex="0423"/>
  <outline>
    <contour>
      <point x="278" y="-28" type="line"/>
      <point x="-4" y="685" type="line"/>
      <point x="-4" y="685"/>
      <point x="18" y="685"/>
      <point x="18" y="685" type="curve"/>
      <point x="293" y="-12" type="line"/>
    </contour>
    <contour>
      <point x="306" y="0" type="line" smooth="yes"/>
      <point x="252" y="-147"/>
      <point x="156" y="-188"/>
      <point x="81" y="-188" type="curve" smooth="yes"/>
      <point x="47" y="-188"/>
      <point x="16" y="-181"/>
      <point x="-10" y="-168" type="curve"/>
      <point x="1" y="-150" type="line"/>
      <point x="21" y="-161"/>
      <point x="45" y="-168"/>
      <point x="75" y="-168" type="curve" smooth="yes"/>
      <point x="154" y="-168"/>
      <point x="237" y="-128"/>
      <point x="284" y="0" type="curve" smooth="yes"/>
      <point x="536" y="685" type="line"/>
      <point x="536" y="685"/>
      <point x="559" y="685"/>
      <point x="559" y="685" type="curve"/>
    </contour>
    <contour>
      <point x="345" y="685" type="move" name="top"/>
    </contour>
  </outline>
</glyph>
<glyph name="afii10074" format="1">
  <advance width="518"/>
  <unicode hex="0438"/>
  <outline>
    <contour>
      <point x="84" y="0" type="line"/>
      <point x="58" y="0" type="line"/>
      <point x="429" y="500" type="line"/>
      <point x="455" y="500" type="line"/>
    </contour>
    <component base="dotlessi" xOffset="388"/>
    <component base="dotlessi"/>
    <contour>
      <point x="312" y="685" type="move" name="top"/>
    </contour>
    <contour>
      <point x="254" y="500" type="move" name="top"/>
    </contour>
  </outline>
</glyph>
<glyph name="uni091C" format="1">
  <advance width="810"/>
  <unicode hex="091C"/>
  <outline>
    <contour>
      <point x="327" y="379" type="curve"/>
      <point x="327" y="431" type="line"/>
      <point x="470" y="431"/>
      <point x="553" y="364"/>
      <point x="553" y="251" type="curve"/>
      <point x="553" y="108"/>
      <point x="453" y="44"/>
      <point x="317" y="44" type="curve" smooth="yes"/>
      <point x="136" y="44"/>
      <point x="58" y="183"/>
      <point x="35" y="305" type="curve"/>
      <point x="114" y="340" type="line"/>
      <point x="142" y="221"/>
      <point x="202" y="126"/>
      <point x="325" y="126" type="curve" smooth="yes"/>
      <point x="410" y="126"/>
      <point x="462" y="172"/>
      <point x="462" y="235" type="curve"/>
      <point x="462" y="310"/>
      <point x="437" y="379"/>
    </contour>
    <component base="uni093E" xOffset="526"/>
    <component base="component_6" xOffset="229" yOffset="-226"/>
    <component base="component_6" xOffset="-108"/>
    <component base="component_6" xOffset="152"/>
  </outline>
</glyph>
<glyph name="uni091D" format="1">
  <advance width="932"/>
  <unicode hex="091D"/>
  <outline>
    <contour>
      <point x="560" y="322" type="line"/>
      <point x="638" y="310"/>
      <point x="687" y="320"/>
      <point x="753" y="349" type="curve"/>
      <point x="783" y="268" type="line"/>
      <point x="696" y="230"/>
      <point x="633" y="225"/>
      <point x="559" y="237" type="curve"/>
    </contour>
    <component base="uni0907"/>
    <component base="uni093E" xOffset="648"/>
  </outline>
</glyph>
<glyph name="uni0921" format="1">
  <advance width="710"/>
  <unicode hex="0921"/>
  <outline>
    <contour>
      <point x="532" y="441" type="line"/>
      <point x="442" y="441" type="line"/>
      <point x="442" y="644" type="line"/>
      <point x="532" y="644" type="line"/>
    </contour>
    <contour>
      <point x="640" y="32"/>
      <point x="527" y="-6"/>
      <point x="375" y="-6" type="curve" smooth="yes"/>
      <point x="229" y="-6"/>
      <point x="114" y="62"/>
      <point x="57" y="128" type="curve"/>
      <point x="107" y="202" type="line"/>
      <point x="161" y="136"/>
      <point x="264" y="76"/>
      <point x="384" y="76" type="curve" smooth="yes"/>
      <point x="483" y="76"/>
      <point x="550" y="107"/>
      <point x="550" y="168" type="curve"/>
      <point x="550" y="220"/>
      <point x="518" y="241"/>
      <point x="475" y="241" type="curve" smooth="yes"/>
      <point x="443" y="241"/>
      <point x="372" y="226"/>
      <point x="338" y="226" type="curve" smooth="yes"/>
      <point x="215" y="226"/>
      <point x="146" y="277"/>
      <point x="146" y="388" type="curve"/>
      <point x="146" y="485"/>
      <point x="220" y="520"/>
      <point x="306" y="520" type="curve" smooth="yes"/>
      <point x="442" y="520" type="line"/>
      <point x="442" y="441" type="line"/>
      <point x="297" y="441" type="line" smooth="yes"/>
      <point x="255" y="441"/>
      <point x="236" y="419"/>
      <point x="236" y="391" type="curve" smooth="yes"/>
      <point x="236" y="345"/>
      <point x="256" y="310"/>
      <point x="340" y="310" type="curve" smooth="yes"/>
      <point x="378" y="310"/>
      <point x="465" y="324"/>
      <point x="511" y="324" type="curve" smooth="yes"/>
      <point x="588" y="324"/>
      <point x="640" y="271"/>
      <point x="640" y="173" type="curve"/>
    </contour>
    <component base="component_6" xOffset="318"/>
    <component base="component_6" xOffset="-108"/>
    <component base="component_6" xOffset="72"/>
  </outline>
</glyph>
<glyph name="uni092E" format="1">
  <advance width="577"/>
  <unicode hex="092E"/>
  <outline>
    <contour>
      <point x="99" y="326" type="line"/>
      <point x="99" y="670" type="line"/>
      <point x="193" y="670" type="line"/>
      <point x="193" y="326" type="line"/>
    </contour>
    <component base="uni0928"/>
  </outline>
</glyph>
<glyph name="uni0939" format="1">
  <advance width="675"/>
  <unicode hex="0939"/>
  <outline>
    <contour>
      <point x="500" y="92" type="line"/>
      <point x="484" y="193"/>
      <point x="436" y="237"/>
      <point x="350" y="237" type="curve" smooth="yes"/>
      <point x="257" y="237"/>
      <point x="220" y="174"/>
      <point x="220" y="116" type="curve" smooth="yes"/>
      <point x="220" y="33"/>
      <point x="297" y="-5"/>
      <point x="455" y="-48" type="curve"/>
      <point x="419" y="-125" type="line"/>
      <point x="220" y="-86"/>
      <point x="135" y="9"/>
      <point x="132" y="108" type="curve" smooth="yes"/>
      <point x="130" y="218"/>
      <point x="202" y="325"/>
      <point x="342" y="325" type="curve"/>
      <point x="479" y="325"/>
      <point x="582" y="234"/>
      <point x="567" y="117" type="curve"/>
    </contour>
    <contour>
      <point x="522" y="441" type="line"/>
      <point x="432" y="441" type="line"/>
      <point x="432" y="644" type="line"/>
      <point x="522" y="644" type="line"/>
    </contour>
    <contour>
      <point x="195" y="222" type="line"/>
      <point x="136.956521739" y="253.735294118"/>
      <point x="106.0" y="307.441176471"/>
      <point x="106" y="388" type="curve"/>
      <point x="106" y="485"/>
      <point x="180" y="520"/>
      <point x="266" y="520" type="curve" smooth="yes"/>
      <point x="432.0" y="520.0" type="line"/>
      <point x="432.0" y="441.0" type="line"/>
      <point x="257" y="441" type="line" smooth="yes"/>
      <point x="215" y="441"/>
      <point x="196" y="419"/>
      <point x="196" y="391" type="curve" smooth="yes"/>
      <point x="196.0" y="349.391304348"/>
      <point x="208.444444444" y="313.52173913"/>
      <point x="252" y="292" type="curve"/>
    </contour>
    <component base="component_6" xOffset="283"/>
    <component base="component_6" xOffset="-108"/>
    <component base="component_6" xOffset="62"/>
  </outline>
</glyph>
<glyph name="uni094A" format="1">
  <advance width="284"/>
  <unicode hex="094A"/>
  <outline>
    <contour>
      <point x="97" y="685" type="line"/>
      <point x="97" y="754"/>
      <point x="34" y="782"/>
      <point x="-46" y="782" type="curve" smooth="yes"/>
      <point x="-197" y="782"/>
      <point x="-278" y="828"/>
      <point x="-278" y="950" type="curve"/>
      <point x="-188" y="950" type="line"/>
      <point x="-188" y="885"/>
      <point x="-128" y="862"/>
      <point x="-46" y="862" type="curve" smooth="yes"/>
      <point x="98" y="862"/>
      <point x="187" y="814"/>
      <point x="187" y="685" type="curve"/>
    </contour>
    <component base="uni093E"/>
  </outline>
</glyph>
<glyph name="uni097A" format="1">
  <advance width="706"/>
  <unicode hex="097A"/>
  <outline>
    <contour>
      <point x="305" y="569" type="line"/>
      <point x="585" y="260" type="line"/>
      <point x="546" y="210" type="line"/>
      <point x="267" y="522" type="line"/>
    </contour>
    <component base="uni092F"/>
  </outline>
</glyph>
<glyph name="commaaccent.alt" format="1">
  <advance width="272"/>
  <outline>
    <component base="commaaccent" xScale="-1" yScale="-1" xOffset="235" yOffset="452"/>
    <contour>
      <point x="155.0" y="510.0" type="move" name="_top"/>
    </contour>
  </outline>
</glyph>
